<svg xmlns="http://www.w3.org/2000/svg" version="1.1" xmlns:xlink="http://www.w3.org/1999/xlink" xmlns:svgjs="http://svgjs.dev/svgjs" width="1500" height="196" viewBox="0 0 1500 196"><g transform="matrix(1,0,0,1,-0.9090909090909918,-1.649876773100985)"><svg viewBox="0 0 396 52" data-background-color="#ffffff" preserveAspectRatio="xMidYMid meet" height="196" width="1500" xmlns="http://www.w3.org/2000/svg" xmlns:xlink="http://www.w3.org/1999/xlink"><g id="tight-bounds" transform="matrix(1,0,0,1,0.2400000000000091,0.43772240919005867)"><svg viewBox="0 0 395.52 51.124555181619904" height="51.124555181619904" width="395.52"><g><svg viewBox="0 0 455.63681524948794 58.8952" height="51.124555181619904" width="395.52"><g><svg viewBox="0 0 455.63681524948794 58.8952" height="58.8952" width="455.63681524948794"><g id="textblocktransform"><svg viewBox="0 0 455.63681524948794 58.8952" height="58.8952" width="455.63681524948794" id="textblock"><g><svg viewBox="0 0 455.63681524948794 58.8952" height="58.8952" width="455.63681524948794"><g><svg><g></g><g></g></svg></g><g><svg><g><svg></svg></g><g></g></svg></g><g id="text-0"><svg viewBox="0 0 455.63681524948794 58.8952" height="58.8952" width="455.63681524948794"><g transform="matrix(1,0,0,1,0,6.771701433296581)"><svg width="395.52" viewBox="6.5 -35.7 317.43 36.400000000000006" height="45.35179713340684" data-palette-color="#d2d6dc"><path d="M14.6 0L6.5 0 6.5-35 13.45-35Q18.85-35 21.85-32.75 24.85-30.5 24.85-26.5L24.85-26.5Q24.85-23.55 23.1-21.48 21.35-19.4 18.2-18.65L18.2-18.65 18.2-18.35Q22.5-17.8 24.93-15.38 27.35-12.95 27.35-9.25L27.35-9.25Q27.35-4.9 24-2.45 20.65 0 14.6 0L14.6 0ZM13.5-33.8L13.5-33.8 9.9-33.8 9.9-18.8 13.45-18.8Q21.35-18.8 21.35-26.3L21.35-26.3Q21.35-33.8 13.5-33.8ZM14.6-17.6L14.6-17.6 9.9-17.6 9.9-1.2 14.6-1.2Q23.75-1.2 23.75-9.4L23.75-9.4Q23.75-17.6 14.6-17.6ZM36.85-14L36.85-35 40.25-35 40.25-13.9Q40.25-7.85 43.22-4.48 46.2-1.1 51.6-1.1L51.6-1.1Q55-1.1 57.52-2.43 60.05-3.75 61.42-6.1 62.8-8.45 62.7-11.5L62.7-11.5 61.85-35 65.25-35 64.4-11.5Q64.2-5.5 60.82-2.4 57.45 0.7 51.2 0.7L51.2 0.7Q44.45 0.7 40.65-3.23 36.85-7.15 36.85-14L36.85-14ZM88.25 0L77.25 0 77.25-35 88.25-35Q94.05-35 98.34-32.8 102.65-30.6 105.05-26.68 107.45-22.75 107.45-17.5L107.45-17.5Q107.45-12.25 105.05-8.33 102.65-4.4 98.34-2.2 94.05 0 88.25 0L88.25 0ZM88.25-33.8L88.25-33.8 80.65-33.8 80.65-1.2 88.25-1.2Q95.5-1.2 99.57-5.5 103.65-9.8 103.65-17.5L103.65-17.5Q103.65-25.2 99.57-29.5 95.5-33.8 88.25-33.8ZM128.94 0L117.94 0 117.94-35 128.94-35Q134.74-35 139.04-32.8 143.34-30.6 145.74-26.68 148.14-22.75 148.14-17.5L148.14-17.5Q148.14-12.25 145.74-8.33 143.34-4.4 139.04-2.2 134.74 0 128.94 0L128.94 0ZM128.94-33.8L128.94-33.8 121.34-33.8 121.34-1.2 128.94-1.2Q136.19-1.2 140.27-5.5 144.34-9.8 144.34-17.5L144.34-17.5Q144.34-25.2 140.27-29.5 136.19-33.8 128.94-33.8ZM162.04 0L158.64 0 158.64-35 162.04-35 162.04-18.8 183.04-18.8 183.04-35 186.44-35 186.44 0 183.04 0 183.04-17.6 162.04-17.6 162.04 0ZM197.89 0L194.24 0 207.69-35 210.79-35 224.24 0 220.59 0 214.39-16.4 203.04-16.4 197.89 0ZM208.34-32.4L208.04-32.4 203.39-17.6 213.94-17.6 208.34-32.4ZM259.44-4.3L259.74-4.3 259.44-1.25Q258.04-0.65 256.04-0.2 254.04 0.25 251.99 0.48 249.94 0.7 248.34 0.7L248.34 0.7Q244.29 0.7 240.84-0.68 237.39-2.05 234.81-4.5 232.24-6.95 230.79-10.28 229.34-13.6 229.34-17.5L229.34-17.5Q229.34-21.4 230.79-24.73 232.24-28.05 234.81-30.5 237.39-32.95 240.84-34.33 244.29-35.7 248.34-35.7L248.34-35.7Q249.99-35.7 252.04-35.45 254.09-35.2 256.04-34.77 257.99-34.35 259.34-33.8L259.34-33.8 259.09-31 258.79-31Q256.94-32.7 254.14-33.6 251.34-34.5 248.34-34.5L248.34-34.5Q243.84-34.5 240.41-32.38 236.99-30.25 235.06-26.43 233.14-22.6 233.14-17.5L233.14-17.5Q233.14-12.35 235.06-8.55 236.99-4.75 240.39-2.63 243.79-0.5 248.34-0.5L248.34-0.5Q251.74-0.5 254.66-1.6 257.59-2.7 259.44-4.3L259.44-4.3ZM268.18 0L264.53 0 277.98-35 281.08-35 294.53 0 290.88 0 284.68-16.4 273.33-16.4 268.18 0ZM278.63-32.4L278.33-32.4 273.68-17.6 284.23-17.6 278.63-32.4ZM311.03 0L307.63 0 307.63-34Q306.88-34 304.53-33.7L304.53-33.7 294.73-32.45 294.73-35 323.93-35 323.93-32.45 314.13-33.7Q311.78-34 311.03-34L311.03-34 311.03 0Z" opacity="1" transform="matrix(1,0,0,1,0,0)" fill="#d2d6dc" class="wordmark-text-0" data-fill-palette-color="primary"></path></svg></g><g><svg xmlns="http://www.w3.org/2000/svg" xmlns:xlink="http://www.w3.org/1999/xlink" version="1.1" x="409.4248" y="0" viewBox="14.669390720525318 5 70.65886100497144 90.05163977794943" style="enable-background:new 0 0 100 100;" xml:space="preserve" height="58.8952" width="46.21201524948794" class="icon-dxe-0" data-fill-palette-color="accent" id="dxe-0"><g fill="#d2d6dc" data-fill-palette-color="accent"><path d="M37 38.3C38 38.2 38.4 35.9 38.3 32.5 40.7 36 44.8 38.3 49.4 38.3 53.8 38.3 57.8 36.2 60.2 32.8 60.1 36 60.6 38.2 61.5 38.3 63.2 38.5 63.9 33.1 63.9 29.3 63.9 24.9 67 20.7 64.4 20.3 63.4 20.1 62.7 20.6 62.3 21.2 61.4 17.9 59.2 15.2 56.4 13.4 56.5 13 56.5 12.5 56.5 12.1 56.5 8.2 53.3 5 49.4 5S42.3 8.2 42.3 12.1C42.3 12.5 42.3 13 42.4 13.4 39.5 15.2 37.3 18 36.4 21.4 36 20.7 35.3 20.1 34.1 20.3 31.6 20.7 34.6 24.9 34.6 29.3 34.6 33.1 35.3 38.5 37 38.3" fill="#d2d6dc" data-fill-palette-color="accent"></path><path d="M22.7 53.5C24.1 55 25.7 55.8 27.4 55.6 31 55.3 33.6 51.1 33.2 46.1 32.8 41.4 29.8 37.7 26.4 37.7H26C22.4 38 19.8 42.2 20.2 47.2 20.4 49.7 21.3 51.9 22.7 53.5" fill="#d2d6dc" data-fill-palette-color="accent"></path><path d="M68.1 70.8C64.9 71.1 62.4 73.1 62.5 75.2 62.6 76.2 63.2 77.1 64.3 77.7 65.5 78.4 67.1 78.7 68.7 78.6S71.8 77.9 72.9 77C73.9 76.2 74.4 75.2 74.3 74.2 74.1 72.2 71.7 70.7 68.8 70.7 68.6 70.8 68.4 70.8 68.1 70.8" fill="#d2d6dc" data-fill-palette-color="accent"></path><path d="M85.1 82.7C84 77 80 74.8 76.4 74 76.5 75.7 75.8 77.3 74.3 78.6 72.9 79.8 71 80.5 68.9 80.7H68C66.2 80.7 64.6 80.3 63.2 79.5 61.5 78.5 60.5 77 60.4 75.3 60.2 72 63.5 69 68 68.7 69.9 68.5 71.7 68.9 73.2 69.7 72.3 64.2 71 55.8 70.4 50.7 69.9 46.9 67.9 43.6 64.5 42.4 62 73.4 54.8 78 54.8 78L51.2 79.1 47.8 77.6C59.8 67.4 61.8 47 62.2 41.8 61.2 41.6 60 41.4 58.8 41.2 55.8 64.5 41.5 75.5 41.5 75.5L35.9 74.8C50.7 67.4 56.5 44.5 57.3 41 55 40.7 52.4 40.5 49.6 40.5 44.1 40.5 39.6 41.2 36.2 42 35.6 42.1 35.1 42.3 34.7 42.5 35.1 43.6 35.3 44.7 35.4 46 35.6 48 35.3 50 34.6 51.7 37.4 61 35.1 69.6 35.1 69.6 35.1 61.2 33.3 56.8 32.5 55.2 31.2 56.7 29.5 57.6 27.6 57.8H27C25.2 57.8 23.4 57.1 21.9 55.7 20.2 62 18.8 71 23.6 74.5 19.6 75.5 15 77.7 14.7 82.7 14.3 89.1 17.8 92.2 26.4 93.8 34.2 95.2 47.4 95.1 49.9 95 52.4 95 65.6 95.2 73.4 93.8 82.1 92.2 86.4 89 85.1 82.7" fill="#d2d6dc" data-fill-palette-color="accent"></path></g></svg></g></svg></g></svg></g></svg></g></svg></g></svg></g><defs></defs></svg><rect width="395.52" height="51.124555181619904" fill="none" stroke="none" visibility="hidden"></rect></g></svg></g></svg>